<svg xmlns="http://www.w3.org/2000/svg" xmlns:xlink="http://www.w3.org/1999/xlink" version="1.1" data-diagram-type="ACTIVITY" style="width:1532px;height:1165px;background:#FFFFFF;" width="1532.35px" height="1165.65px" viewBox="0 0 1532 1165" zoomAndPan="magnify" preserveAspectRatio="none" contentStyleType="text/css"><?plantuml 1.2026.7?><defs/><g font-family="sans-serif" lengthAdjust="spacing"><g class="title" data-source-line="1"><text x="655.51" y="32.807" fill="#000" font-size="13.3" textLength="219.723" font-weight="700">Activité : réservation d'un véhicule</text></g><rect x="19" y="53.261" width="1487.993" height="21.509" fill="none" style="stroke:none;"/><ellipse cx="448.88" cy="89.02" rx="9.5" ry="9.5" fill="#222" style="stroke:#222;stroke-width:0.95;"/><rect x="316.449" y="117.52" width="264.863" height="33.339" fill="#F1F1F1" style="stroke:#181818;stroke-width:0.475;" rx="11.875" ry="11.875"/><text x="325.949" y="138.854" fill="#000" font-size="11.4" textLength="245.863">Choisir un véhicule et saisir les dates de location</text><rect x="352.561" y="169.859" width="192.638" height="33.339" fill="#F1F1F1" style="stroke:#181818;stroke-width:0.475;" rx="11.875" ry="11.875"/><text x="362.061" y="191.193" fill="#000" font-size="11.4" textLength="173.638">Valider la demande de réservation</text><rect x="146.336" y="368.676" width="211.002" height="33.339" fill="#F1F1F1" style="stroke:#181818;stroke-width:0.475;" rx="11.875" ry="11.875"/><text x="155.836" y="390.01" fill="#000" font-size="11.4" textLength="192.002">Valider le panier et passer commande</text><polygon points="204.2,525.693,299.475,525.693,310.875,537.093,299.475,548.493,204.2,548.493,192.8,537.093,204.2,525.693" fill="#F1F1F1" style="stroke:#181818;stroke-width:0.475;stroke-linejoin:miter;stroke-miterlimit:10;"/><text x="204.2" y="541.369" fill="#000" font-size="10.45" textLength="95.275">Mode de paiement ?</text><text x="155.036" y="534.797" fill="#000" font-size="10.45" textLength="37.764">En ligne</text><text x="310.875" y="534.797" fill="#000" font-size="10.45" textLength="59.24">À la livraison</text><rect x="24.7" y="557.993" width="210.985" height="33.339" fill="#F1F1F1" style="stroke:#181818;stroke-width:0.475;" rx="11.875" ry="11.875"/><text x="34.2" y="579.327" fill="#000" font-size="11.4" textLength="191.985">Payer en ligne (Carte / Mobile Money)</text><rect x="254.685" y="557.993" width="237.593" height="33.339" fill="#F1F1F1" style="stroke:#181818;stroke-width:0.475;" rx="11.875" ry="11.875"/><text x="264.185" y="579.327" fill="#000" font-size="11.4" textLength="218.593">Choisir le paiement à la livraison (Espèces)</text><polygon points="251.837,597.032,263.237,608.432,251.837,619.832,240.437,608.432,251.837,597.032" fill="#F1F1F1" style="stroke:#181818;stroke-width:0.475;stroke-linejoin:miter;stroke-miterlimit:10;"/><rect x="181.516" y="638.832" width="140.643" height="33.339" fill="#F1F1F1" style="stroke:#181818;stroke-width:0.475;" rx="11.875" ry="11.875"/><text x="191.016" y="660.167" fill="#000" font-size="11.4" textLength="121.643">Confirmer la commande</text><rect x="143.492" y="1057.545" width="216.691" height="33.339" fill="#F1F1F1" style="stroke:#181818;stroke-width:0.475;" rx="11.875" ry="11.875"/><text x="152.992" y="1078.879" fill="#000" font-size="11.4" textLength="197.691">Recevoir la confirmation de réservation</text><ellipse cx="251.837" cy="1120.334" rx="10.45" ry="10.45" fill="none" style="stroke:#222;stroke-width:0.95;"/><ellipse cx="251.837" cy="1120.334" rx="5.7" ry="5.7" fill="#222" style="stroke:#222;stroke-width:0.95;"/><rect x="520.778" y="316.337" width="250.29" height="33.339" fill="#F1F1F1" style="stroke:#181818;stroke-width:0.475;" rx="11.875" ry="11.875"/><text x="530.278" y="337.671" fill="#000" font-size="11.4" textLength="231.29">Modifier les dates ou choisir un autre véhicule</text><ellipse cx="645.923" cy="379.126" rx="10.45" ry="10.45" fill="none" style="stroke:#222;stroke-width:0.95;"/><ellipse cx="645.923" cy="379.126" rx="5.7" ry="5.7" fill="#222" style="stroke:#222;stroke-width:0.95;"/><line x1="19" y1="53.261" x2="19" y2="1145.984" style="stroke:#000;stroke-width:1.425;"/><rect x="1066.334" y="222.198" width="129.888" height="33.339" fill="#F1F1F1" style="stroke:#181818;stroke-width:0.475;" rx="11.875" ry="11.875"/><text x="1075.834" y="243.532" fill="#000" font-size="11.4" textLength="110.888">Vérifier la disponibilité</text><polygon points="1081.896,274.537,1180.66,274.537,1192.06,285.937,1180.66,297.337,1081.896,297.337,1070.496,285.937,1081.896,274.537" fill="#F1F1F1" style="stroke:#181818;stroke-width:0.475;stroke-linejoin:miter;stroke-miterlimit:10;"/><text x="1081.896" y="290.213" fill="#000" font-size="10.45" textLength="98.765">Véhicule disponible ?</text><text x="1054.234" y="283.641" fill="#000" font-size="10.45" textLength="16.262">Oui</text><text x="1192.06" y="283.641" fill="#000" font-size="10.45" textLength="19.17">Non</text><rect x="852.806" y="316.337" width="162.858" height="33.339" fill="#F1F1F1" style="stroke:#181818;stroke-width:0.475;" rx="11.875" ry="11.875"/><text x="862.306" y="337.671" fill="#000" font-size="11.4" textLength="143.858">Ajouter le véhicule au panier</text><rect x="804.659" y="421.015" width="259.151" height="33.339" fill="#F1F1F1" style="stroke:#181818;stroke-width:0.475;" rx="11.875" ry="11.875"/><text x="814.159" y="442.349" fill="#000" font-size="11.4" textLength="240.151">Générer le devis officiel (snapshot et référence)</text><rect x="780.568" y="473.354" width="307.334" height="33.339" fill="#F1F1F1" style="stroke:#181818;stroke-width:0.475;" rx="11.875" ry="11.875"/><text x="790.068" y="494.688" fill="#000" font-size="11.4" textLength="288.334">Afficher la page de commande et les modes de paiement</text><rect x="784.389" y="691.171" width="299.692" height="33.339" fill="#F1F1F1" style="stroke:#181818;stroke-width:0.475;" rx="11.875" ry="11.875"/><text x="793.889" y="712.506" fill="#000" font-size="11.4" textLength="280.692">Enregistrer la commande et la réservation dans MySQL</text><rect x="840.454" y="743.51" width="187.562" height="33.339" fill="#F1F1F1" style="stroke:#181818;stroke-width:0.475;" rx="11.875" ry="11.875"/><text x="849.954" y="764.845" fill="#000" font-size="11.4" textLength="168.562">Valider automatiquement le devis</text><rect x="783.307" y="795.85" width="301.857" height="33.339" fill="#F1F1F1" style="stroke:#181818;stroke-width:0.475;" rx="11.875" ry="11.875"/><text x="792.807" y="817.184" fill="#000" font-size="11.4" textLength="282.857">Notifier le client et transmettre le devis à l'administrateur</text><line x1="774.868" y1="53.261" x2="774.868" y2="1145.984" style="stroke:#000;stroke-width:1.425;"/><rect x="1265.098" y="848.189" width="193.251" height="33.339" fill="#F1F1F1" style="stroke:#181818;stroke-width:0.475;" rx="11.875" ry="11.875"/><text x="1274.598" y="869.523" fill="#000" font-size="11.4" textLength="174.251">Recevoir le devis de la commande</text><rect x="1257.175" y="900.528" width="209.098" height="33.339" fill="#F1F1F1" style="stroke:#181818;stroke-width:0.475;" rx="11.875" ry="11.875"/><text x="1266.675" y="921.862" fill="#000" font-size="11.4" textLength="190.098">Consulter les détails de la commande</text><rect x="1283.799" y="952.867" width="155.85" height="33.339" fill="#F1F1F1" style="stroke:#181818;stroke-width:0.475;" rx="11.875" ry="11.875"/><text x="1293.299" y="974.201" fill="#000" font-size="11.4" textLength="136.85">Marquer le devis comme lu</text><rect x="1221.681" y="1005.206" width="280.087" height="33.339" fill="#F1F1F1" style="stroke:#181818;stroke-width:0.475;" rx="11.875" ry="11.875"/><text x="1231.181" y="1026.54" fill="#000" font-size="11.4" textLength="261.087">Prendre en charge la mise à disposition du véhicule</text><line x1="1215.981" y1="53.261" x2="1215.981" y2="1145.984" style="stroke:#000;stroke-width:1.425;"/><line x1="1505.567" y1="53.261" x2="1505.567" y2="1145.984" style="stroke:#000;stroke-width:1.425;"/><line x1="448.88" y1="98.52" x2="448.88" y2="117.52" style="stroke:#181818;stroke-width:0.95;"/><polygon points="445.08,108.02,448.88,117.52,452.68,108.02,448.88,111.82" fill="#181818" style="stroke:#181818;stroke-width:0.95;stroke-linejoin:miter;stroke-miterlimit:10;"/><line x1="448.88" y1="150.859" x2="448.88" y2="169.859" style="stroke:#181818;stroke-width:0.95;"/><polygon points="445.08,160.359,448.88,169.859,452.68,160.359,448.88,164.159" fill="#181818" style="stroke:#181818;stroke-width:0.95;stroke-linejoin:miter;stroke-miterlimit:10;"/><line x1="192.8" y1="537.093" x2="130.193" y2="537.093" style="stroke:#181818;stroke-width:0.95;"/><line x1="130.193" y1="537.093" x2="130.193" y2="557.993" style="stroke:#181818;stroke-width:0.95;"/><polygon points="126.393,548.493,130.193,557.993,133.993,548.493,130.193,552.293" fill="#181818" style="stroke:#181818;stroke-width:0.95;stroke-linejoin:miter;stroke-miterlimit:10;"/><line x1="310.875" y1="537.093" x2="373.482" y2="537.093" style="stroke:#181818;stroke-width:0.95;"/><line x1="373.482" y1="537.093" x2="373.482" y2="557.993" style="stroke:#181818;stroke-width:0.95;"/><polygon points="369.682,548.493,373.482,557.993,377.282,548.493,373.482,552.293" fill="#181818" style="stroke:#181818;stroke-width:0.95;stroke-linejoin:miter;stroke-miterlimit:10;"/><line x1="130.193" y1="591.332" x2="130.193" y2="608.432" style="stroke:#181818;stroke-width:0.95;"/><line x1="130.193" y1="608.432" x2="240.437" y2="608.432" style="stroke:#181818;stroke-width:0.95;"/><polygon points="230.937,604.632,240.437,608.432,230.937,612.232,234.737,608.432" fill="#181818" style="stroke:#181818;stroke-width:0.95;stroke-linejoin:miter;stroke-miterlimit:10;"/><line x1="373.482" y1="591.332" x2="373.482" y2="608.432" style="stroke:#181818;stroke-width:0.95;"/><line x1="373.482" y1="608.432" x2="263.237" y2="608.432" style="stroke:#181818;stroke-width:0.95;"/><polygon points="272.737,604.632,263.237,608.432,272.737,612.232,268.937,608.432" fill="#181818" style="stroke:#181818;stroke-width:0.95;stroke-linejoin:miter;stroke-miterlimit:10;"/><line x1="251.837" y1="619.832" x2="251.837" y2="638.832" style="stroke:#181818;stroke-width:0.95;"/><polygon points="248.037,629.332,251.837,638.832,255.637,629.332,251.837,633.132" fill="#181818" style="stroke:#181818;stroke-width:0.95;stroke-linejoin:miter;stroke-miterlimit:10;"/><line x1="251.837" y1="1090.884" x2="251.837" y2="1109.884" style="stroke:#181818;stroke-width:0.95;"/><polygon points="248.037,1100.384,251.837,1109.884,255.637,1100.384,251.837,1104.184" fill="#181818" style="stroke:#181818;stroke-width:0.95;stroke-linejoin:miter;stroke-miterlimit:10;"/><line x1="645.923" y1="349.676" x2="645.923" y2="368.676" style="stroke:#181818;stroke-width:0.95;"/><polygon points="642.123,359.176,645.923,368.676,649.723,359.176,645.923,362.976" fill="#181818" style="stroke:#181818;stroke-width:0.95;stroke-linejoin:miter;stroke-miterlimit:10;"/><line x1="934.235" y1="454.354" x2="934.235" y2="473.354" style="stroke:#181818;stroke-width:0.95;"/><polygon points="930.435,463.854,934.235,473.354,938.035,463.854,934.235,467.654" fill="#181818" style="stroke:#181818;stroke-width:0.95;stroke-linejoin:miter;stroke-miterlimit:10;"/><line x1="934.235" y1="724.51" x2="934.235" y2="743.51" style="stroke:#181818;stroke-width:0.95;"/><polygon points="930.435,734.01,934.235,743.51,938.035,734.01,934.235,737.81" fill="#181818" style="stroke:#181818;stroke-width:0.95;stroke-linejoin:miter;stroke-miterlimit:10;"/><line x1="934.235" y1="776.85" x2="934.235" y2="795.85" style="stroke:#181818;stroke-width:0.95;"/><polygon points="930.435,786.35,934.235,795.85,938.035,786.35,934.235,790.15" fill="#181818" style="stroke:#181818;stroke-width:0.95;stroke-linejoin:miter;stroke-miterlimit:10;"/><line x1="1070.496" y1="285.937" x2="934.235" y2="285.937" style="stroke:#181818;stroke-width:0.95;"/><line x1="934.235" y1="285.937" x2="934.235" y2="316.337" style="stroke:#181818;stroke-width:0.95;"/><polygon points="930.435,306.837,934.235,316.337,938.035,306.837,934.235,310.637" fill="#181818" style="stroke:#181818;stroke-width:0.95;stroke-linejoin:miter;stroke-miterlimit:10;"/><line x1="1131.278" y1="255.537" x2="1131.278" y2="274.537" style="stroke:#181818;stroke-width:0.95;"/><polygon points="1127.478,265.037,1131.278,274.537,1135.078,265.037,1131.278,268.837" fill="#181818" style="stroke:#181818;stroke-width:0.95;stroke-linejoin:miter;stroke-miterlimit:10;"/><line x1="1361.724" y1="881.528" x2="1361.724" y2="900.528" style="stroke:#181818;stroke-width:0.95;"/><polygon points="1357.924,891.028,1361.724,900.528,1365.524,891.028,1361.724,894.828" fill="#181818" style="stroke:#181818;stroke-width:0.95;stroke-linejoin:miter;stroke-miterlimit:10;"/><line x1="1361.724" y1="933.867" x2="1361.724" y2="952.867" style="stroke:#181818;stroke-width:0.95;"/><polygon points="1357.924,943.367,1361.724,952.867,1365.524,943.367,1361.724,947.167" fill="#181818" style="stroke:#181818;stroke-width:0.95;stroke-linejoin:miter;stroke-miterlimit:10;"/><line x1="1361.724" y1="986.206" x2="1361.724" y2="1005.206" style="stroke:#181818;stroke-width:0.95;"/><polygon points="1357.924,995.706,1361.724,1005.206,1365.524,995.706,1361.724,999.506" fill="#181818" style="stroke:#181818;stroke-width:0.95;stroke-linejoin:miter;stroke-miterlimit:10;"/><line x1="448.88" y1="203.198" x2="448.88" y2="207.948" style="stroke:#181818;stroke-width:0.95;"/><line x1="448.88" y1="207.948" x2="1131.278" y2="207.948" style="stroke:#181818;stroke-width:0.95;"/><line x1="1131.278" y1="207.948" x2="1131.278" y2="222.198" style="stroke:#181818;stroke-width:0.95;"/><polygon points="1127.478,212.698,1131.278,222.198,1135.078,212.698,1131.278,216.498" fill="#181818" style="stroke:#181818;stroke-width:0.95;stroke-linejoin:miter;stroke-miterlimit:10;"/><line x1="934.235" y1="349.676" x2="934.235" y2="354.426" style="stroke:#181818;stroke-width:0.95;"/><line x1="934.235" y1="354.426" x2="251.837" y2="354.426" style="stroke:#181818;stroke-width:0.95;"/><line x1="251.837" y1="354.426" x2="251.837" y2="368.676" style="stroke:#181818;stroke-width:0.95;"/><polygon points="248.037,359.176,251.837,368.676,255.637,359.176,251.837,362.976" fill="#181818" style="stroke:#181818;stroke-width:0.95;stroke-linejoin:miter;stroke-miterlimit:10;"/><line x1="251.837" y1="402.015" x2="251.837" y2="406.765" style="stroke:#181818;stroke-width:0.95;"/><line x1="251.837" y1="406.765" x2="934.235" y2="406.765" style="stroke:#181818;stroke-width:0.95;"/><line x1="934.235" y1="406.765" x2="934.235" y2="421.015" style="stroke:#181818;stroke-width:0.95;"/><polygon points="930.435,411.515,934.235,421.015,938.035,411.515,934.235,415.315" fill="#181818" style="stroke:#181818;stroke-width:0.95;stroke-linejoin:miter;stroke-miterlimit:10;"/><line x1="934.235" y1="506.693" x2="934.235" y2="511.443" style="stroke:#181818;stroke-width:0.95;"/><line x1="934.235" y1="511.443" x2="251.837" y2="511.443" style="stroke:#181818;stroke-width:0.95;"/><line x1="251.837" y1="511.443" x2="251.837" y2="525.693" style="stroke:#181818;stroke-width:0.95;"/><polygon points="248.037,516.193,251.837,525.693,255.637,516.193,251.837,519.993" fill="#181818" style="stroke:#181818;stroke-width:0.95;stroke-linejoin:miter;stroke-miterlimit:10;"/><line x1="251.837" y1="672.171" x2="251.837" y2="676.921" style="stroke:#181818;stroke-width:0.95;"/><line x1="251.837" y1="676.921" x2="934.235" y2="676.921" style="stroke:#181818;stroke-width:0.95;"/><line x1="934.235" y1="676.921" x2="934.235" y2="691.171" style="stroke:#181818;stroke-width:0.95;"/><polygon points="930.435,681.671,934.235,691.171,938.035,681.671,934.235,685.471" fill="#181818" style="stroke:#181818;stroke-width:0.95;stroke-linejoin:miter;stroke-miterlimit:10;"/><line x1="934.235" y1="829.189" x2="934.235" y2="833.939" style="stroke:#181818;stroke-width:0.95;"/><line x1="934.235" y1="833.939" x2="1361.724" y2="833.939" style="stroke:#181818;stroke-width:0.95;"/><line x1="1361.724" y1="833.939" x2="1361.724" y2="848.189" style="stroke:#181818;stroke-width:0.95;"/><polygon points="1357.924,838.689,1361.724,848.189,1365.524,838.689,1361.724,842.489" fill="#181818" style="stroke:#181818;stroke-width:0.95;stroke-linejoin:miter;stroke-miterlimit:10;"/><line x1="1361.724" y1="1038.545" x2="1361.724" y2="1043.295" style="stroke:#181818;stroke-width:0.95;"/><line x1="1361.724" y1="1043.295" x2="251.837" y2="1043.295" style="stroke:#181818;stroke-width:0.95;"/><line x1="251.837" y1="1043.295" x2="251.837" y2="1057.545" style="stroke:#181818;stroke-width:0.95;"/><polygon points="248.037,1048.045,251.837,1057.545,255.637,1048.045,251.837,1051.845" fill="#181818" style="stroke:#181818;stroke-width:0.95;stroke-linejoin:miter;stroke-miterlimit:10;"/><line x1="1192.06" y1="285.937" x2="1203.46" y2="285.937" style="stroke:#181818;stroke-width:0.95;"/><line x1="1203.46" y1="285.937" x2="1203.46" y2="303.037" style="stroke:#181818;stroke-width:0.95;"/><line x1="1203.46" y1="303.037" x2="645.923" y2="303.037" style="stroke:#181818;stroke-width:0.95;"/><line x1="645.923" y1="303.037" x2="645.923" y2="316.337" style="stroke:#181818;stroke-width:0.95;"/><polygon points="642.123,306.837,645.923,316.337,649.723,306.837,645.923,310.637" fill="#181818" style="stroke:#181818;stroke-width:0.95;stroke-linejoin:miter;stroke-miterlimit:10;"/><text x="375.075" y="71.012" fill="#000" font-size="17.1" textLength="43.719">Client</text><text x="941.256" y="71.012" fill="#000" font-size="17.1" textLength="108.336">Système / API</text><text x="1305.654" y="71.012" fill="#000" font-size="17.1" textLength="110.24">Administrateur</text><?plantuml-src ZLHDZzf03BtdL_YsS6bxsKFXK26qgYejMzgLzZvD7E9gCfFEHoGa3lqfFMv-H_vOFJCP26Wh5I50-Fdv-TcE8oSHDgMZdjmum0hCE5WqlN2a5LHtNa4_3WsLNc9Hs58m_CExZ_T5STfAGkLEXNN2k6ArRJHPCZ3F07HWHVnReeLAkF2987KP2woBrOkGL2771GTQeJZAxxcADTTwFbetlhO8xs6p_tBYj74mLDEKIBRJYdwG34qmdcfOl9n5v33__BG4rw22nLTFomBujThyrDu57fpf5XuwePYUoGBgt6nCEMl62HNwx8HboL3gDdQH4s-LHuBFuw2uWKHHOKyMT5rJIIXXOPNeRADT86KVwW1K9IxNazu0R5BZdJX4ktBHa1ACRdMLZEu4OSl2tseZcBJJoU-CknZqe43IGM5oALRUYsDeTGh0Oijp3ttjD3kF_ANmEAb4QHam_WuY9VM6Tq2h6LLU5ZahFVwvGhC4susl9ThCgIggamTRhMeoRJBXlnn_K0OFP9svpec6YPkb5yh2xlZyxN5zFMxXdMuPyyidmNbs4-n9ksaZUI3Hvy3k3DErwBZoPTYXrJjHjQI29BuAVrwqpTM_a_hlM6AlQROkuOZchMTRh9TfcHao3awG_0Ts9mptCMCCSGRwARxdfQjOCu-xR8GvH8wMUAmiFbwKfMINlzpDczTo4Hz4nC5DHj_UUO1RfxiYhSzJNfbhFjxPx7D-f6ZF8i-F7vwJmRce2szSeRy0?></g></svg>